<?xml version="1.0" encoding="utf-8"?>
<!-- Generator: Adobe Illustrator 16.0.0, SVG Export Plug-In . SVG Version: 6.00 Build 0)  -->
<!DOCTYPE svg PUBLIC "-//W3C//DTD SVG 1.1//EN" "http://www.w3.org/Graphics/SVG/1.1/DTD/svg11.dtd">
<svg version="1.1" id="圖層_1" xmlns="http://www.w3.org/2000/svg" xmlns:xlink="http://www.w3.org/1999/xlink" x="0px" y="0px"
	 width="2499.268px" height="780px" viewBox="1643.881 -1203.68 2499.268 780"
	 enable-background="new 1643.881 -1203.68 2499.268 780" xml:space="preserve">
<path fill="#FFFFFF" d="M2961.074-1007.693c0,28.11-22.65,50.745-50.762,50.745c-28.11,0-50.745-22.635-50.745-50.745
	c0-28.111,21.862-50.746,50.745-50.746C2939.219-1057.66,2961.074-1035.016,2961.074-1007.693z M2751.82-905.406v12.495
	c0,0-24.195-31.247-75.729-31.247c-85.097,0-151.474,64.81-151.474,154.594c0,89.012,65.597,154.593,151.474,154.593
	c52.313,0,75.729-32.011,75.729-32.011v13.268c0,6.248,4.695,10.92,10.936,10.92h63.232v-293.578h-63.232
	C2756.516-916.349,2751.82-910.875,2751.82-905.406L2751.82-905.406z M2751.82-717.25c-11.7,17.183-35.131,32.019-63.233,32.019
	c-49.966,0-88.231-31.23-88.231-84.332c0-53.094,38.266-84.324,88.231-84.324c27.331,0,52.313,15.615,63.233,32.011V-717.25z
	 M2872.843-916.349h74.948v293.578h-74.948V-916.349L2872.843-916.349z M3992.471-924.166c-51.533,0-75.744,31.247-75.744,31.247
	v-164.741h-74.948v434.889h63.249c6.248,0,10.92-5.468,10.92-10.936v-13.268c0,0,24.211,32.011,75.729,32.011
	c85.111,0,151.473-65.565,151.473-154.577S4076.787-924.165,3992.471-924.166L3992.471-924.166z M3979.977-686.02
	c-28.898,0-51.534-14.819-63.25-32.011v-104.627c11.716-15.615,36.699-32.011,63.25-32.011c49.965,0,88.223,31.23,88.223,84.324
	S4029.949-686.02,3979.977-686.02z M3802.748-796.879v174.889h-74.965v-166.309c0-48.397-15.615-67.929-57.75-67.929
	c-22.635,0-46.065,11.715-60.924,28.898v204.566h-74.934v-293.578h59.318c6.248,0,10.936,5.467,10.936,10.936v12.495
	c21.862-22.651,50.745-31.247,79.628-31.247c32.798,0,60.129,9.384,81.992,28.119
	C3792.584-874.175,3802.748-846.073,3802.748-796.879L3802.748-796.879z M3352.229-924.166c-51.518,0-75.729,31.247-75.729,31.247
	v-164.741h-74.948v434.889h63.233c6.248,0,10.936-5.468,10.936-10.936v-13.268c0,0,24.21,32.011,75.729,32.011
	c85.111,0,151.473-65.565,151.473-154.577C3503.701-858.56,3437.34-924.165,3352.229-924.166L3352.229-924.166z M3339.734-686.02
	c-28.883,0-51.519-14.819-63.234-32.011v-104.627c11.716-15.615,36.699-32.011,63.234-32.011c49.98,0,88.231,31.23,88.231,84.324
	S3389.715-686.02,3339.734-686.02z M3136.742-924.166c22.635,0,34.351,3.916,34.351,3.916v69.481c0,0-62.461-21.083-101.491,23.431
	V-622h-74.965v-294.35h63.249c6.248,0,10.92,5.467,10.92,10.935v12.495C3082.877-909.322,3113.327-924.166,3136.742-924.166
	L3136.742-924.166z M2358.326-649.322c-3.9-9.367-7.809-19.516-11.708-28.111c-6.255-14.047-12.503-27.33-17.955-39.817l-0.78-0.78
	c-53.881-117.123-111.646-235.789-172.556-352.896l-2.34-4.695c-6.406-12.148-12.649-24.382-18.728-36.698
	c-7.815-14.063-15.615-28.883-28.11-42.946c-24.983-31.23-60.901-48.413-99.152-48.413c-39.046,0-74.177,17.183-99.932,46.846
	c-11.715,14.048-20.311,28.883-28.11,42.946c-6.094,12.309-12.336,24.542-18.728,36.698l-2.348,4.695
	c-60.121,117.106-118.675,235.781-172.548,352.896l-0.788,1.553c-5.46,12.511-11.716,25.778-17.964,39.818
	c-3.899,8.596-7.799,17.963-11.699,28.11c-10.155,28.883-13.283,56.214-9.367,84.332c8.588,58.562,47.618,107.731,101.499,129.61
	c20.303,8.596,41.386,12.495,63.241,12.495c6.248,0,14.048-0.779,20.303-1.567c25.771-3.12,52.313-11.7,78.084-26.535
	c32.011-17.963,62.461-43.718,96.813-81.196c34.35,37.479,65.58,63.233,96.811,81.196c25.779,14.835,52.314,23.415,78.077,26.535
	c6.247,0.795,14.063,1.567,20.311,1.567c21.863,0,43.718-3.899,63.233-12.495c54.661-21.879,92.912-71.829,101.508-129.61
	C2371.593-593.108,2368.473-620.423,2358.326-649.322L2358.326-649.322z M2006.209-608.724
	c-42.166-53.093-69.496-103.059-78.855-145.209c-3.9-17.963-4.688-33.578-2.34-47.634c1.552-12.495,6.247-23.431,12.495-32.798
	c14.835-21.067,39.818-34.351,68.708-34.351c28.898,0,54.662,12.495,68.717,34.351c6.248,9.367,10.928,20.311,12.504,32.798
	c2.332,14.063,1.552,30.45-2.348,47.634C2075.69-712.563,2048.359-662.589,2006.209-608.724z M2317.72-572.025
	c-5.46,40.598-32.791,75.744-71.041,91.359c-18.735,7.8-39.046,10.147-59.333,7.8c-19.516-2.348-39.047-8.596-59.334-20.295
	c-28.11-15.631-56.213-39.818-89.012-75.744c51.525-63.233,82.756-121.022,94.472-172.54c5.468-24.211,6.256-46.066,3.9-66.377
	c-3.112-19.516-10.147-37.479-21.075-53.094c-24.219-35.146-64.824-55.434-110.095-55.434s-85.877,21.083-110.079,55.434
	c-10.928,15.615-17.963,33.578-21.084,53.094c-3.119,20.311-2.348,42.945,3.9,66.377c11.708,51.518,43.719,110.078,94.464,173.319
	c-32.011,35.918-60.901,60.129-89.012,75.744c-20.303,11.716-39.811,17.963-59.325,20.296c-21.075,2.348-41.387-0.78-59.342-7.8
	c-38.25-15.616-65.58-50.762-71.041-91.36c-2.34-19.516-0.787-39.03,7.028-60.893c2.332-7.816,6.247-15.616,10.147-24.983
	c5.468-12.495,11.699-25.778,17.955-39.046l0.788-1.553c53.865-116.343,111.639-235.018,171.761-350.564l2.34-4.695
	c6.255-11.699,12.502-24.194,18.742-35.91c6.248-12.495,13.268-24.211,21.863-34.366c16.396-18.72,38.25-28.883,62.461-28.883
	s46.066,10.163,62.461,28.883c8.596,10.179,15.616,21.895,21.863,34.366c6.256,11.716,12.504,24.211,18.735,35.91l2.348,4.695
	c59.204,116.027,116.211,233.163,170.988,351.345v0.78c6.256,12.511,11.716,26.55,17.963,39.061
	c3.9,9.353,7.808,17.152,10.147,24.968C2318.508-611.852,2320.848-592.321,2317.72-572.025L2317.72-572.025z"/>
</svg>
